<svg width="24" height="24" viewBox="0 0 24 24" fill="none" xmlns="http://www.w3.org/2000/svg">
<path d="M19.5 3H17.862C17.7074 2.56282 17.4216 2.18407 17.0435 1.91557C16.6655 1.64706 16.2137 1.50192 15.75 1.5H8.25C7.7863 1.50192 7.33453 1.64706 6.95648 1.91557C6.57842 2.18407 6.29256 2.56282 6.138 3H4.5C4.10218 3 3.72064 3.15804 3.43934 3.43934C3.15804 3.72064 3 4.10218 3 4.5V7.5C3.00293 8.43654 3.3569 9.33794 3.99201 10.0262C4.62712 10.7145 5.49722 11.1397 6.4305 11.2177C6.98342 12.6263 8.05403 13.7702 9.423 14.415H9.4275C9.531 14.4645 9.63825 14.5028 9.744 14.5463V16.5H8.25C7.85218 16.5 7.47064 16.658 7.18934 16.9393C6.90804 17.2206 6.75 17.6022 6.75 18V21C6.75 21.3978 6.90804 21.7794 7.18934 22.0607C7.47064 22.342 7.85218 22.5 8.25 22.5H15.75C16.1478 22.5 16.5294 22.342 16.8107 22.0607C17.092 21.7794 17.25 21.3978 17.25 21V18C17.25 17.6022 17.092 17.2206 16.8107 16.9393C16.5294 16.658 16.1478 16.5 15.75 16.5H14.25V14.55C14.3558 14.5065 14.463 14.4683 14.5673 14.4188H14.5718C15.9407 13.7739 17.0113 12.6301 17.5643 11.2215C18.4991 11.1446 19.371 10.7195 20.0073 10.0303C20.6436 9.34105 20.9979 8.43802 21 7.5V4.5C21 4.10218 20.842 3.72064 20.5607 3.43934C20.2794 3.15804 19.8978 3 19.5 3ZM6 9.62175C5.56162 9.46606 5.18213 9.17857 4.91358 8.79871C4.64503 8.41885 4.50057 7.96521 4.5 7.5V4.5H6V9.62175ZM15.75 21H8.25V18H15.75V21ZM12.75 16.5H11.25V14.9505C11.7478 15.0165 12.2522 15.0165 12.75 14.9505V16.5ZM13.9298 13.062C13.3284 13.3468 12.6714 13.4946 12.006 13.4946C11.3406 13.4946 10.6836 13.3468 10.0822 13.062C9.30786 12.7035 8.65277 12.1301 8.19497 11.41C7.73717 10.6898 7.49594 9.85332 7.5 9V3.75C7.5 3.55109 7.57902 3.36032 7.71967 3.21967C7.86032 3.07902 8.05109 3 8.25 3H15.75C15.9489 3 16.1397 3.07902 16.2803 3.21967C16.421 3.36032 16.5 3.55109 16.5 3.75V9C16.5051 9.85202 16.2657 10.6876 15.8101 11.4076C15.3545 12.1276 14.7019 12.7018 13.9298 13.062ZM19.5 7.5C19.4994 7.96521 19.355 8.41885 19.0864 8.79871C18.8179 9.17857 18.4384 9.46606 18 9.62175V4.5H19.5V7.5Z" fill="#7B94AA"/>
</svg>
