<svg width="25" height="26" viewBox="0 0 25 26" fill="none" xmlns="http://www.w3.org/2000/svg">
<path d="M18.915 6.56195C18.769 6.48346 18.6269 6.39742 18.4892 6.30415C18.0886 6.02875 17.7214 5.70425 17.3954 5.33763C16.5796 4.3669 16.275 3.38211 16.1628 2.69261H16.1673C16.0735 2.12029 16.1123 1.75 16.1181 1.75H12.4028V16.6921C12.4028 16.8927 12.4028 17.091 12.3947 17.2869C12.3947 17.3113 12.3924 17.3338 12.391 17.36C12.391 17.3708 12.3911 17.382 12.3888 17.3933C12.3888 17.3961 12.3888 17.3989 12.3888 17.4017C12.3496 17.9378 12.1844 18.4557 11.9076 18.9098C11.6308 19.364 11.251 19.7404 10.8015 20.006C10.3331 20.2831 9.80322 20.4285 9.26426 20.4278C7.53321 20.4278 6.13025 18.9598 6.13025 17.1467C6.13025 15.3337 7.53321 13.8656 9.26426 13.8656C9.59194 13.8653 9.9176 13.919 10.2292 14.0245L10.2337 10.0901C9.28786 9.96299 8.32699 10.0412 7.41169 10.3197C6.49639 10.5981 5.64651 11.0709 4.91568 11.7081C4.27529 12.2868 3.73692 12.9773 3.32479 13.7485C3.16795 14.0297 2.57621 15.1598 2.50456 16.9939C2.45949 18.035 2.76009 19.1135 2.90341 19.5593V19.5686C2.99354 19.8311 3.34282 20.7269 3.91202 21.482C4.37101 22.0877 4.91328 22.6198 5.52139 23.0611V23.0517L5.5304 23.0611C7.32905 24.3323 9.32329 24.2489 9.32329 24.2489C9.66851 24.2343 10.8249 24.2489 12.1382 23.6016C13.5948 22.8839 14.4241 21.8148 14.4241 21.8148C14.9538 21.1759 15.3751 20.4479 15.6697 19.6619C16.0059 18.7427 16.1181 17.6403 16.1181 17.1997V9.27259C16.1632 9.30072 16.7635 9.71366 16.7635 9.71366C16.7635 9.71366 17.6284 10.2902 18.9777 10.6656C19.9457 10.9328 21.25 10.9891 21.25 10.9891V7.15301C20.793 7.20457 19.8651 7.05458 18.915 6.56195Z" fill="white"/>
</svg>
