<svg width="25" height="26" viewBox="0 0 25 26" fill="none" xmlns="http://www.w3.org/2000/svg">
<g clip-path="url(#clip0_310_4220)">
<path fill-rule="evenodd" clip-rule="evenodd" d="M22.2671 4.77246C23.3428 5.05994 24.19 5.907 24.4775 6.98268C24.9999 8.93224 24.9999 13 24.9999 13C24.9999 13 24.9999 17.0676 24.4775 19.0173C24.19 20.093 23.3428 20.9401 22.2671 21.2277C20.3177 21.75 12.4999 21.75 12.4999 21.75C12.4999 21.75 4.68208 21.75 2.7325 21.2277C1.65678 20.9401 0.809622 20.093 0.52212 19.0173C-0.000183105 17.0676 -0.000183105 13 -0.000183105 13C-0.000183105 13 -0.000183105 8.93224 0.52212 6.98268C0.809622 5.907 1.65678 5.05994 2.7325 4.77246C4.68208 4.25 12.4999 4.25 12.4999 4.25C12.4999 4.25 20.3177 4.25 22.2671 4.77246ZM10.1561 9.57623V17.1849L16.4061 13.3807L10.1561 9.57623Z" fill="white"/>
</g>
<defs>
<clipPath id="clip0_310_4220">
<rect width="25" height="25" fill="white" transform="translate(0 0.5)"/>
</clipPath>
</defs>
</svg>
