<svg width="25" height="26" viewBox="0 0 25 26" fill="none" xmlns="http://www.w3.org/2000/svg">
<path d="M12.4944 23C9.76263 23 9.44059 22.9856 8.37451 22.939C7.54317 22.9117 6.72258 22.743 5.94808 22.44C4.60806 21.9193 3.54846 20.8608 3.02748 19.5225C2.73576 18.7463 2.57842 17.9262 2.56219 17.0974C2.5 16.035 2.5 15.6868 2.5 12.98C2.5 10.2444 2.51444 9.92504 2.56219 8.86605C2.57878 8.03828 2.73611 7.21935 3.02748 6.44422C3.5479 5.10416 4.60922 4.04477 5.95142 3.52562C6.72726 3.23309 7.54758 3.07556 8.37674 3.05988C9.43726 3 9.78595 3 12.4944 3C15.2485 3 15.565 3.01442 16.6144 3.05988C17.4457 3.0757 18.2682 3.23321 19.0464 3.52562C20.3882 4.04536 21.4493 5.10454 21.9703 6.44422C22.2669 7.23064 22.4251 8.06238 22.4378 8.90264C22.5 9.96496 22.5 10.312 22.5 13.0177C22.5 15.7234 22.4845 16.0783 22.4378 17.1284C22.4213 17.9581 22.2636 18.7789 21.9714 19.5558C21.4491 20.895 20.3879 21.9538 19.0464 22.4744C18.2693 22.7651 17.4485 22.9222 16.6188 22.939C15.5583 23 15.2107 23 12.4944 23ZM12.4567 4.75538C9.74042 4.75538 9.45836 4.76868 8.39783 4.81637C7.76484 4.82474 7.13796 4.94138 6.54442 5.16123C5.66797 5.49613 4.97443 6.18584 4.63548 7.05966C4.41362 7.65879 4.29679 8.29162 4.29012 8.93036C4.23126 10.0049 4.23126 10.2865 4.23126 12.98C4.23126 15.6414 4.24125 15.9641 4.29012 17.0319C4.30006 17.6642 4.41682 18.2903 4.63548 18.8838C4.97493 19.757 5.66834 20.4462 6.54442 20.7811C7.13755 21.0024 7.76469 21.1191 8.39783 21.126C9.47279 21.1881 9.75597 21.1881 12.4567 21.1881C15.1807 21.1881 15.4628 21.1748 16.5144 21.126C17.1479 21.1183 17.7752 21.0016 18.369 20.7811C19.2401 20.4433 19.9291 19.7557 20.2679 18.886C20.4893 18.2864 20.6062 17.6533 20.6133 17.0142H20.6255C20.6732 15.9541 20.6732 15.6713 20.6732 12.9623C20.6732 10.2533 20.661 9.96829 20.6133 8.90929C20.6033 8.27772 20.4865 7.65237 20.2679 7.05966C19.9299 6.1887 19.2408 5.49977 18.369 5.16123C17.7753 4.94028 17.1479 4.8236 16.5144 4.81637C15.4406 4.75538 15.1596 4.75538 12.4567 4.75538ZM12.4944 18.102C10.4178 18.1034 8.54488 16.8553 7.74915 14.94C6.95342 13.0246 7.39162 10.8192 8.85939 9.35225C10.3272 7.88533 12.5354 7.44585 14.4542 8.23878C16.373 9.03171 17.6245 10.9009 17.6249 12.9745C17.6219 15.8034 15.3274 18.0965 12.4944 18.102ZM12.4944 9.6456C10.6545 9.6456 9.16296 11.135 9.16296 12.9723C9.16296 14.8096 10.6545 16.299 12.4944 16.299C14.3344 16.299 15.8259 14.8096 15.8259 12.9723C15.8217 11.1368 14.3326 9.64987 12.4944 9.6456ZM17.8248 8.85496C17.1645 8.85251 16.6309 8.31669 16.6322 7.65736C16.6334 6.99804 17.169 6.46419 17.8293 6.46419C18.4895 6.46419 19.0251 6.99803 19.0264 7.65735C19.0267 7.97545 18.9001 8.28058 18.6746 8.5053C18.4492 8.73002 18.1434 8.85584 17.8248 8.85496Z" fill="white"/>
</svg>
