<svg width="25" height="25" viewBox="0 0 25 25" fill="none" xmlns="http://www.w3.org/2000/svg">
<path d="M18.915 6.06195C18.769 5.98346 18.6269 5.89742 18.4892 5.80415C18.0886 5.52875 17.7214 5.20425 17.3954 4.83763C16.5796 3.8669 16.275 2.88211 16.1628 2.19261H16.1673C16.0735 1.62029 16.1123 1.25 16.1181 1.25H12.4028V16.1921C12.4028 16.3927 12.4028 16.591 12.3947 16.7869C12.3947 16.8113 12.3924 16.8338 12.391 16.86C12.391 16.8708 12.3911 16.882 12.3888 16.8933C12.3888 16.8961 12.3888 16.8989 12.3888 16.9017C12.3496 17.4378 12.1844 17.9557 11.9076 18.4098C11.6308 18.864 11.251 19.2404 10.8015 19.506C10.3331 19.7831 9.80322 19.9285 9.26426 19.9278C7.53321 19.9278 6.13025 18.4598 6.13025 16.6467C6.13025 14.8337 7.53321 13.3656 9.26426 13.3656C9.59194 13.3653 9.9176 13.419 10.2292 13.5245L10.2337 9.59005C9.28786 9.46299 8.32699 9.54116 7.41169 9.81965C6.49639 10.0981 5.64651 10.5709 4.91568 11.2081C4.27529 11.7868 3.73692 12.4773 3.32479 13.2485C3.16795 13.5297 2.57621 14.6598 2.50456 16.4939C2.45949 17.535 2.76009 18.6135 2.90341 19.0593V19.0686C2.99354 19.3311 3.34282 20.2269 3.91202 20.982C4.37101 21.5877 4.91328 22.1198 5.52139 22.5611V22.5517L5.5304 22.5611C7.32905 23.8323 9.32329 23.7489 9.32329 23.7489C9.66851 23.7343 10.8249 23.7489 12.1382 23.1016C13.5948 22.3839 14.4241 21.3148 14.4241 21.3148C14.9538 20.6759 15.3751 19.9479 15.6697 19.1619C16.0059 18.2427 16.1181 17.1403 16.1181 16.6997V8.77259C16.1632 8.80072 16.7635 9.21366 16.7635 9.21366C16.7635 9.21366 17.6284 9.7902 18.9777 10.1656C19.9457 10.4328 21.25 10.4891 21.25 10.4891V6.65301C20.793 6.70457 19.8651 6.55458 18.915 6.06195Z" fill="#7B94AA"/>
</svg>
