<svg width="25" height="25" viewBox="0 0 25 25" fill="none" xmlns="http://www.w3.org/2000/svg">
<g clip-path="url(#clip0_310_5378)">
<path fill-rule="evenodd" clip-rule="evenodd" d="M22.267 4.27246C23.3428 4.55994 24.1899 5.407 24.4774 6.48268C24.9999 8.43224 24.9999 12.5 24.9999 12.5C24.9999 12.5 24.9999 16.5676 24.4774 18.5173C24.1899 19.593 23.3428 20.4401 22.267 20.7277C20.3176 21.25 12.4998 21.25 12.4998 21.25C12.4998 21.25 4.68202 21.25 2.73244 20.7277C1.65672 20.4401 0.809561 19.593 0.522059 18.5173C-0.000244141 16.5676 -0.000244141 12.5 -0.000244141 12.5C-0.000244141 12.5 -0.000244141 8.43224 0.522059 6.48268C0.809561 5.407 1.65672 4.55994 2.73244 4.27246C4.68202 3.75 12.4998 3.75 12.4998 3.75C12.4998 3.75 20.3176 3.75 22.267 4.27246ZM10.156 9.07623V16.6849L16.4061 12.8807L10.156 9.07623Z" fill="#7B94AA"/>
</g>
<defs>
<clipPath id="clip0_310_5378">
<rect width="25" height="25" fill="white"/>
</clipPath>
</defs>
</svg>
