<svg width="25" height="25" viewBox="0 0 25 25" fill="none" xmlns="http://www.w3.org/2000/svg">
<path d="M12.4944 22.5C9.76263 22.5 9.44059 22.4856 8.37451 22.439C7.54317 22.4117 6.72258 22.243 5.94808 21.94C4.60806 21.4193 3.54846 20.3608 3.02748 19.0225C2.73576 18.2463 2.57842 17.4262 2.56219 16.5974C2.5 15.535 2.5 15.1868 2.5 12.48C2.5 9.7444 2.51444 9.42504 2.56219 8.36605C2.57878 7.53828 2.73611 6.71935 3.02748 5.94422C3.5479 4.60416 4.60922 3.54477 5.95142 3.02562C6.72726 2.73309 7.54758 2.57556 8.37674 2.55988C9.43726 2.5 9.78595 2.5 12.4944 2.5C15.2485 2.5 15.565 2.51442 16.6144 2.55988C17.4457 2.5757 18.2682 2.73321 19.0464 3.02562C20.3882 3.54536 21.4493 4.60454 21.9703 5.94422C22.2669 6.73064 22.4251 7.56238 22.4378 8.40264C22.5 9.46496 22.5 9.81204 22.5 12.5177C22.5 15.2234 22.4845 15.5783 22.4378 16.6284C22.4213 17.4581 22.2636 18.2789 21.9714 19.0558C21.4491 20.395 20.3879 21.4538 19.0464 21.9744C18.2693 22.2651 17.4485 22.4222 16.6188 22.439C15.5583 22.5 15.2107 22.5 12.4944 22.5ZM12.4567 4.25538C9.74042 4.25538 9.45836 4.26868 8.39783 4.31637C7.76484 4.32474 7.13796 4.44138 6.54442 4.66123C5.66797 4.99613 4.97443 5.68584 4.63548 6.55966C4.41362 7.15879 4.29679 7.79162 4.29012 8.43036C4.23126 9.50488 4.23126 9.78654 4.23126 12.48C4.23126 15.1414 4.24125 15.4641 4.29012 16.5319C4.30006 17.1642 4.41682 17.7903 4.63548 18.3838C4.97493 19.257 5.66834 19.9462 6.54442 20.2811C7.13755 20.5024 7.76469 20.6191 8.39783 20.626C9.47279 20.6881 9.75597 20.6881 12.4567 20.6881C15.1807 20.6881 15.4628 20.6748 16.5144 20.626C17.1479 20.6183 17.7752 20.5016 18.369 20.2811C19.2401 19.9433 19.9291 19.2557 20.2679 18.386C20.4893 17.7864 20.6062 17.1533 20.6133 16.5142H20.6255C20.6732 15.4541 20.6732 15.1713 20.6732 12.4623C20.6732 9.75327 20.661 9.46829 20.6133 8.40929C20.6033 7.77772 20.4865 7.15237 20.2679 6.55966C19.9299 5.6887 19.2408 4.99977 18.369 4.66123C17.7753 4.44028 17.1479 4.3236 16.5144 4.31637C15.4406 4.25538 15.1596 4.25538 12.4567 4.25538ZM12.4944 17.602C10.4178 17.6034 8.54488 16.3553 7.74915 14.44C6.95342 12.5246 7.39162 10.3192 8.85939 8.85225C10.3272 7.38533 12.5354 6.94585 14.4542 7.73878C16.373 8.53171 17.6245 10.4009 17.6249 12.4745C17.6219 15.3034 15.3274 17.5965 12.4944 17.602ZM12.4944 9.1456C10.6545 9.1456 9.16296 10.635 9.16296 12.4723C9.16296 14.3096 10.6545 15.799 12.4944 15.799C14.3344 15.799 15.8259 14.3096 15.8259 12.4723C15.8217 10.6368 14.3326 9.14987 12.4944 9.1456ZM17.8248 8.35496C17.1645 8.35251 16.6309 7.81669 16.6322 7.15736C16.6334 6.49804 17.169 5.96419 17.8293 5.96419C18.4895 5.96419 19.0251 6.49803 19.0264 7.15735C19.0267 7.47545 18.9001 7.78058 18.6746 8.0053C18.4492 8.23002 18.1434 8.35584 17.8248 8.35496Z" fill="#7B94AA"/>
</svg>
